<?xml version="1.0" encoding="UTF-8" standalone="no"?>
<!DOCTYPE svg PUBLIC "-//W3C//DTD SVG 1.1//EN" "http://www.w3.org/Graphics/SVG/1.1/DTD/svg11.dtd">
<svg width="100%" height="100%" viewBox="0 0 5 5" version="1.1" xmlns="http://www.w3.org/2000/svg" xmlns:xlink="http://www.w3.org/1999/xlink" xml:space="preserve" xmlns:serif="http://www.serif.com/" style="fill-rule:evenodd;clip-rule:evenodd;stroke-linejoin:round;stroke-miterlimit:2;">
    <rect x="0" y="0" width="5" height="5" style="fill:rgb(255,32,121);"/>
    <g transform="matrix(1,0,0,1.04598,0.795991,-0.72111)">
        <text x="-0.171px" y="4.217px" style="font-family:'Bizmeud';font-size:5.222px;fill:white;">d</text>
    </g>
    <g transform="matrix(1,0,0,1,2.81837,-0.582076)">
        <path d="M0.022,2.358L0.372,3.036L-0.083,3.036L-0.083,4.217L0.361,4.217L0.361,3.454L0.591,3.454L0.988,4.222L1.453,4.222L0.998,3.365C1.233,3.224 1.286,3.015 1.286,2.723C1.286,2.373 1.186,1.982 0.643,1.945L-0.083,1.945L-0.083,2.358L0.022,2.358ZM0.523,2.358C0.737,2.358 0.873,2.42 0.873,2.702C0.873,2.822 0.842,2.906 0.789,2.963L0.476,2.358L0.523,2.358Z" style="fill:white;"/>
    </g>
    <g transform="matrix(1,0,0,1,1.74085,-0.582076)">
        <path d="M0.742,3.209C0.915,3.209 0.988,3.209 1.04,3.297C1.082,3.371 1.087,3.491 1.087,3.512C1.087,3.512 1.087,3.663 1.04,3.736C0.988,3.814 0.92,3.898 0.774,3.898C0.664,3.898 0.596,3.882 0.534,3.814C0.455,3.726 0.455,3.564 0.455,3.564L0.022,3.564C0.022,3.841 0.069,3.955 0.215,4.096C0.361,4.237 0.565,4.269 0.742,4.269C1.108,4.269 1.223,4.222 1.364,4.076C1.5,3.935 1.531,3.726 1.531,3.522C1.531,3.318 1.505,3.104 1.364,2.958C1.223,2.812 1.108,2.765 0.742,2.765L0.742,2.953C0.57,2.953 0.497,2.953 0.445,2.864C0.398,2.791 0.398,2.671 0.398,2.65C0.398,2.65 0.398,2.499 0.445,2.425C0.497,2.347 0.565,2.264 0.711,2.264C0.821,2.264 0.889,2.279 0.951,2.347C1.03,2.436 1.03,2.598 1.03,2.598L1.463,2.598C1.463,2.321 1.416,2.206 1.27,2.065C1.124,1.924 0.92,1.893 0.742,1.893C0.377,1.893 0.262,1.94 0.121,2.086C-0.02,2.232 -0.046,2.446 -0.046,2.65C-0.046,2.854 -0.02,3.062 0.121,3.203C0.262,3.35 0.377,3.397 0.742,3.397L0.742,3.209Z" style="fill:rgb(221,221,221);"/>
    </g>
</svg>
