<?xml version="1.0" encoding="UTF-8"?>
<svg fill="#FF11DD" width="100pt" height="100pt" version="1.1" viewBox="0 0 100 100" xmlns="http://www.w3.org/2000/svg">
 <g>
  <path d="m83.387 38.172c-1.9531 1.0117-14.906 2.0547-33.199 2.0547-20.191 0-32.312-1.2266-33.266-2.0781-0.14453-0.22656-0.42188-0.32813-0.67578-0.25391-0.25781 0.074219-0.43359 0.30859-0.43359 0.57812v36.27c0 0.23047 0.13281 0.43359 0.32031 0.53125 0.48047 0.57031 2.4102 1.2266 10.199 1.7969 6.332 0.46484 14.75 0.71484 23.699 0.71484 8.9531 0 17.371-0.25391 23.703-0.71484 7.7852-0.57031 9.7188-1.2227 10.199-1.7969 0.19141-0.10156 0.32422-0.30078 0.32422-0.53125l0.007813-36.035c0-0.21094-0.10938-0.40625-0.28906-0.51562-0.17969-0.10938-0.40625-0.11328-0.58984-0.019531zm-0.32422 36.156c-0.058594 0.0625-0.10156 0.13281-0.12891 0.21094-1.2891 0.875-13.223 2.0508-32.895 2.0508-19.672 0-31.602-1.1758-32.895-2.0508-0.027343-0.078124-0.070312-0.14844-0.12891-0.20703v-34.898c2.7422 0.91797 9.8516 1.4102 16.793 1.6797 1.2031-0.15625 2.4844-0.097656 3.7852 0.125 6.4922 0.18359 12.051 0.1875 12.598 0.1875 15.645 0 28.855-0.76953 32.875-1.8711z"/>
  <path d="m87.938 35.844c-0.83984-1.6992-1.6797-3.4023-2.5195-5.1016-0.51562-1.043-1.0273-2.0859-1.543-3.125-0.22266-0.44922-0.41797-1.1328-0.87891-1.4023-0.92969-0.54297-1.8594-1.0859-2.7852-1.6289-0.16016-0.09375-0.60156-0.23438-0.60156-0.44531 0-1.2422-0.11719-1.1719 1.1953-1.3906 1.7578-0.29297 3.2031-0.625 4.2422-2.1953 1.0586-1.6094 1.4844-3.6406 1.5859-5.5391 0.16016-3-0.41406-5.9883-3.0195-7.7031-1.6992-1.1211-4.5195-1.0898-6.4453-1.2852-9.8711-0.98828-19.871-1.0625-29.785-1.0039-9.1836 0.042968-18.664-0.042969-27.75 1.4062-1.5625 0.25-2.8516 0.58594-4.0898 1.5352-3.0117 2.3086-2.4492 8.1914-1.1641 11.227 0.57422 1.3516 1.5547 2.7617 3.0469 3.1719 0.79688 0.21875 1.668 0.32812 2.4883 0.45312 0.65625 0.10156 0.55859-0.054687 0.55859 0.42969 0 0.21484 0.10938 0.80469 0 0.98828-0.32031 0.55078-1.8711 1.0938-2.4219 1.4141-0.57812 0.33984-1.1484 0.55859-1.4531 1.1758-1.0273 2.082-2.0586 4.1641-3.0859 6.2461-0.44531 0.89844-1.4336 2.1719-1.4336 3.2188v38.387c0 0.58984-0.21484 1.6445 0.0625 2.2109 1.2383 2.5234 2.3516 5.125 3.3398 7.7578 0.57422 1.5273 0.77344 3.5195 2.0898 4.5547 1.1875 0.93359 2.5508 1.625 3.9453 2.1914 3.2461 1.3203 6.7383 2.0273 10.195 2.5352 6.1914 0.91016 12.355 0.92578 18.59 1.0508 6.6055 0.12891 13.309-0.20312 19.824-1.3281 3.3398-0.57813 6.7344-1.3633 9.7969-2.8594 1.1875-0.57812 2.3359-1.2812 3.293-2.1953 0.50391-0.48047 0.64844-1.8828 0.87891-2.5391 0.38281-1.0977 0.79688-2.1836 1.2344-3.2578 0.62109-1.5391 1.2891-3.0586 1.9844-4.5625 0.20312-0.46094 0.6875-1.1172 0.6875-1.6445v-40.449c0-0.10547 0-0.17188-0.0625-0.29688zm-60.023-29.02c7.3594-0.48438 14.746-0.61719 22.125-0.61719 7.2422 0 14.492 0.13281 21.719 0.58984 3.4375 0.21875 7.2734 0.21484 10.598 1.2461-2.0195 0.63672-4.2578 0.73047-6.3516 0.92578-2.7695 0.25781-5.5508 0.41797-8.3242 0.54688-5.875 0.26953-11.758 0.37109-17.637 0.37109-5.8828 0-11.766-0.10156-17.641-0.37109-2.7812-0.12891-5.5625-0.28516-8.3359-0.54688-2.0859-0.19531-4.3242-0.29297-6.3359-0.92578 3.1953-0.98828 6.875-1 10.184-1.2188zm-9.6719 14.457c-2.4961-0.15234-3.3203-3.7695-3.5312-5.7148-0.20703-1.8945-0.14453-4.1484 0.85937-5.8359 0.82813-1.3945 1.6289-0.53516 2.9531-0.26562 3.3867 0.67578 6.8945 0.86328 10.332 1.0703 10.285 0.61719 20.621 0.67578 30.918 0.44922 4.6406-0.10156 9.2812-0.27344 13.906-0.60938 3.0273-0.22266 6.5547-0.20703 9.4219-1.332 2.9336-1.2109 2.2188 7.5781 1.8125 8.9023-0.55078 1.7891-1.4297 3.0234-3.293 3.4258-1.9141 0.41406-3.8945 0.58984-5.8398 0.76172-11.074 0.97656-22.277 1.0195-33.387 0.81641-5.7461-0.085938-11.508-0.28516-17.234-0.76172-2.3008-0.19531-4.6641-0.36719-6.918-0.90625zm68.555 55.203c-1.4766 3.0547-2.832 6.1953-3.9258 9.4062-0.27734 0.8125-0.35938 1.7617-1.0469 2.3125-0.48047 0.38281-0.99219 0.72266-1.5273 1.0234-1.332 0.76172-2.7734 1.3203-4.2344 1.7773-6.3047 1.9883-13.113 2.4883-19.688 2.707-4.9023 0.16406-9.8438 0.15234-14.742-0.085938-6.5625-0.32031-13.57-0.86719-19.711-3.3711-1.207-0.49219-2.3945-1.0859-3.4414-1.875-1.3867-1.0469-1.7383-3.8516-2.3789-5.4648-0.66406-1.6758-1.3828-3.3359-2.1367-4.9766-0.20703-0.44922-0.6875-1.0781-0.6875-1.5898l0.003906-38.145c0-0.58984-0.14062-1.375 0-1.9531 0.39453-1.6562 1.6992-3.4453 2.4531-4.9648 0.51953-1.0547 1.1953-3.5859 2.25-4.2031 0.99219-0.58203 1.9844-1.1602 2.9766-1.7422 0.91797-0.53516 0.71484-1.3008 0.71484-2.2852 9.4141 1.1211 19.008 1.1641 28.477 1.1641 9.3984 0 18.91-0.046875 28.258-1.1367 0 0.79688-0.23438 1.707 0.53906 2.1602 1.0508 0.61328 2.1016 1.2305 3.1484 1.8438 0.39453 0.23047 0.50391 0.67187 0.70703 1.082 0.5625 1.1406 1.1289 2.2812 1.6914 3.4258 0.54688 1.1016 1.0898 2.207 1.6367 3.3086 0.16406 0.32812 0.66797 0.98828 0.66797 1.3672z"/>
 </g>
</svg>
