<?xml version="1.0" encoding="UTF-8"?>
<svg fill="#FF11DD" width="100pt" height="100pt" version="1.1" viewBox="0 0 100 100" xmlns="http://www.w3.org/2000/svg">
 <g>
  <path d="m33.539 20.5h32.93v4h-32.93z"/>
  <path d="m70.328 25.5h-40.656c-3.5039 0.003906-6.3438 2.8477-6.3438 6.3516v51.301-0.003906c0 3.5039 2.8398 6.3477 6.3438 6.3516h40.656c3.5039-0.003906 6.3438-2.8477 6.3438-6.3516v-51.297c0-3.5039-2.8398-6.3477-6.3438-6.3516zm-5.4414 4.8398h0.003906c1.7422 0 3.3125 1.0508 3.9805 2.6602 0.66797 1.6094 0.30078 3.4648-0.93359 4.6992-1.2344 1.2305-3.0859 1.6016-4.6953 0.93359-1.6133-0.66797-2.6641-2.2383-2.6641-3.9844 0-1.1406 0.45703-2.2383 1.2656-3.0469 0.80859-0.80859 1.9023-1.2617 3.0469-1.2617zm4.3125 12.77c0 1.1094-0.66797 2.1094-1.6914 2.5312-1.0234 0.42578-2.2031 0.19141-2.9844-0.59375-0.78516-0.78125-1.0195-1.9609-0.59375-2.9844 0.42187-1.0234 1.4219-1.6914 2.5312-1.6914 1.5117 0 2.7383 1.2266 2.7383 2.7383zm-28.871-13.758c1.5898 0.003907 3.168 0.28516 4.6602 0.82813 0.078125 0.011718 0.15625 0.039062 0.22266 0.082031 3.7578 1.4141 6.707 4.4062 8.0703 8.1875 1.3594 3.7773 0.99219 7.9648-1 11.449-0.023438 0.066406-0.0625 0.125-0.10938 0.17187-2.4883 4.2266-7.0352 6.8086-11.941 6.7812-4.9023-0.03125-9.418-2.6719-11.852-6.9297s-2.4141-9.4883 0.050782-13.73c2.4609-4.2383 6.9961-6.8477 11.898-6.8398zm9.5117 33.531v-0.003906c0 1.8555-1.1172 3.5234-2.8281 4.2344-1.7148 0.70703-3.6836 0.3125-4.9922-1-1.3125-1.3086-1.6992-3.2812-0.98828-4.9922 0.71094-1.7109 2.3867-2.8242 4.2383-2.8203 2.5273 0.003907 4.5703 2.0547 4.5703 4.5781zm7.1016 19.488-0.80078 1.5703c-0.4375 0.88281-1.207 1.5547-2.1406 1.8672-0.38281 0.125-0.78125 0.1875-1.1797 0.19141-0.58203-0.003906-1.1523-0.14062-1.6719-0.39844l-1.75-0.87891c-0.14063 0.070313-0.28125 0.14844-0.42969 0.21094v-0.003906c-0.52734 0.21484-1.0977 0.32422-1.668 0.32031-0.94531-0.019531-1.8672-0.26562-2.6992-0.71094l-17.762-8.9102c-0.5-0.25391-0.80469-0.77344-0.79297-1.3359 0.015625-0.5625 0.35156-1.0625 0.86328-1.293 0.30859-0.12891 0.87891-0.39062 0.94141-0.53906-0.58984-2.6992 0.42188-3.5391 1.5898-4.2188v-0.003907c0.26953-0.18359 0.375-0.53125 0.25781-0.83984-0.14453-0.38281-0.21094-0.78906-0.19922-1.1992 0.03125-0.82812 0.48438-1.582 1.1992-2 0.73828-0.4375 1.6445-0.46875 2.4102-0.089844l17.379 8.7305c1.4062 0.60938 2.4727 1.8047 2.9219 3.2695 0 0.12891 0 0.25 0.058594 0.37109l1.8086 0.91016h0.003906c1.8281 0.92969 2.5664 3.1602 1.6602 5zm10.719 3.1289c-0.89844 0.003906-1.7148-0.53516-2.0586-1.3672-0.34766-0.82812-0.15625-1.7852 0.48047-2.4219 0.63281-0.63672 1.5898-0.82813 2.4219-0.48047 0.83203 0.34766 1.3711 1.1602 1.3672 2.0586 0 1.2227-0.99219 2.2109-2.2109 2.2109zm-3.6602-10.102c-3.9336 0-7.5703-2.0859-9.5586-5.4766-0.039062-0.042969-0.070312-0.089844-0.089844-0.14062-1.6055-2.8086-1.9023-6.1758-0.81641-9.2188 1.0859-3.0469 3.4453-5.4648 6.4648-6.6211 0.054688-0.039062 0.11719-0.0625 0.17969-0.070312 3.082-1.125 6.5-0.82422 9.3438 0.8125 2.8398 1.6367 4.8125 4.4492 5.3828 7.6758 0.57422 3.2305-0.30859 6.5469-2.4141 9.0625-2.1055 2.5156-5.2148 3.9727-8.4922 3.9766z"/>
  <path d="m40.328 55.859c4.4297-0.003906 8.5352-2.3047 10.852-6.0781l-1.4492-1.6211c-0.0625-0.078125-0.10547-0.17188-0.12109-0.26953l-0.10156-0.80859-1.2812 0.57812 0.003907 1.2383c0.003906 0.23828-0.16016 0.44531-0.39062 0.49219l-1.6719 0.37891-0.78906 1.3711c-0.089844 0.15625-0.25781 0.25-0.4375 0.25-0.089844 0-0.17578-0.023437-0.25-0.070313-0.23828-0.14062-0.31641-0.44141-0.17969-0.67969l0.91016-1.5586v-0.003906c0.066406-0.12109 0.18359-0.20703 0.31641-0.23828l1.4883-0.33984 0.003907-1.1602c0-0.19531 0.11328-0.37109 0.28906-0.44922l1.8594-0.89062-0.10938-0.85938-0.80078-0.25-0.85156 0.87109h0.003906c-0.10156 0.10156-0.23828 0.15625-0.38281 0.14844l-2.7188-0.12891c-0.27734 0-0.5-0.22656-0.5-0.5 0-0.27734 0.22266-0.5 0.5-0.5l2.4883 0.12109 0.99219-0.90234c0.12891-0.14062 0.32812-0.1875 0.51172-0.12891l1.3906 0.44922h-0.003906c0.18359 0.058594 0.31641 0.21875 0.33984 0.41016l0.35938 2.8711 1.1211 1.25c1.625-3.1992 1.8242-6.9375 0.54297-10.285-1.2812-3.3516-3.918-6.0078-7.2617-7.3047l-1.6016 1.3477c-0.074219 0.058594-0.16406 0.097656-0.25781 0.10938l-1 0.12109 0.80859 0.62109c0.14453 0.11328 0.21875 0.29687 0.19141 0.48047l-0.28906 1.6289c-0.03125 0.17188-0.14844 0.31641-0.3125 0.37891l-1.4883 0.57031h-0.17969c-0.20703 0-0.39453-0.12891-0.47266-0.32031-0.046876-0.12109-0.042969-0.26172 0.011718-0.37891 0.054688-0.12109 0.15625-0.21484 0.28125-0.26172l1.2305-0.46875 0.17969-1-1.2305-0.94141v0.85156l-0.17188 0.46875c-0.058594 0.17188-0.21094 0.29688-0.39062 0.32031l-1.6602 0.21094-0.44922 0.5c-0.089844 0.10938-0.22656 0.17188-0.37109 0.17188-0.12109 0-0.24219-0.042969-0.33984-0.12109-0.19141-0.19922-0.19141-0.51172 0-0.71094l0.57031-0.64062c0.078125-0.085938 0.18359-0.14453 0.30078-0.16016l1.5508-0.23828 0.53906-1.5v-0.10156l0.058593-0.050781h0.050782c0.066406-0.046876 0.14062-0.078126 0.22266-0.089844l2-0.26953 1.0508-0.85937h-0.003906c-1.1641-0.35156-2.3711-0.52734-3.5898-0.53125-4.7148 0.007812-9.0469 2.6133-11.258 6.7812h0.48047l0.39062-0.85938c0.050782-0.16016 0.18359-0.28125 0.34766-0.32031l0.80859-0.33984 0.46094-1.2109c0.10156-0.25 0.38281-0.37891 0.64062-0.28906 0.125 0.046875 0.22656 0.14062 0.28125 0.26562 0.054687 0.12109 0.058594 0.25781 0.007813 0.38281l-0.53125 1.3984 0.003906 0.003907c-0.050782 0.125-0.14844 0.22656-0.26953 0.27734l-0.82812 0.35156-0.37891 0.85938 0.050781 0.55859-0.003906 0.003907c1.543-1.5859 3.7109-2.3984 5.9141-2.2188 2.2031 0.18359 4.2109 1.3359 5.4805 3.1484 1.2656 1.8125 1.6562 4.0938 1.0703 6.2266-0.58984 2.1289-2.0977 3.8867-4.1172 4.793l0.48828 0.69141 1.1406 0.28125h0.14844l0.078125 0.070312 0.75 1.25 1.207-0.003906c0.27344 0.003906 0.49219 0.22656 0.5 0.5 0 0.13281-0.054687 0.26172-0.14844 0.35547s-0.21875 0.14453-0.35156 0.14453h-1.3906c-0.17188 0-0.33203-0.089844-0.42188-0.23828l-0.60937-1-0.39063 0.32031-0.21875 0.87891c-0.035156 0.14062-0.12891 0.25391-0.26172 0.32031l-1 0.51172v-0.003907c-0.070313 0.039063-0.14844 0.058594-0.23047 0.0625-0.1875 0-0.35938-0.10937-0.4375-0.28125-0.0625-0.11719-0.074219-0.25391-0.03125-0.38281 0.039063-0.125 0.13281-0.23047 0.25-0.28906l0.80859-0.41016 0.21094-0.80859c0.035156-0.03125 0.078125-0.058594 0.12109-0.078126l0.19141-0.16016-0.35938-0.089844h-0.003906c-0.11719-0.03125-0.21875-0.10156-0.28906-0.20312l-0.75-1.0586c-0.67578 0.20312-1.3828 0.30469-2.0898 0.30078-2.7305 0.003906-5.2422-1.4961-6.5352-3.8984-1.293-2.4062-1.1602-5.3242 0.34766-7.6016l-0.10938-1.2109h-0.36328c-0.14844 0-0.28516-0.0625-0.37891-0.17969-1.7344 3.9414-1.3594 8.4883 0.99219 12.094 2.3555 3.6016 6.3711 5.7734 10.676 5.7656z"/>
  <path d="m35.73 49.891c2.5977 0 4.9375-1.5664 5.9297-3.9648 0.99609-2.3984 0.44531-5.1602-1.3906-6.9961-1.8359-1.8359-4.5977-2.3828-6.9961-1.3906-2.3984 0.99219-3.9648 3.3359-3.9648 5.9297 0.007812 3.543 2.8789 6.4141 6.4219 6.4219zm-6.2891-6c0-1.707 1.0273-3.2461 2.6055-3.8984 1.5742-0.65234 3.3906-0.29297 4.5977 0.91406s1.5664 3.0234 0.91406 4.5977c-0.65234 1.5781-2.1914 2.6055-3.8984 2.6055-1.1289 0-2.2109-0.44922-3.0039-1.2539-0.78906-0.80078-1.2305-1.8867-1.2148-3.0156z"/>
  <path d="m36.879 43.84c0 4.293-6.4375 4.293-6.4375 0 0-4.293 6.4375-4.293 6.4375 0"/>
  <path d="m72.82 59.422c-2.2305-4.1055-7.0039-6.1211-11.5-4.8516l0.67188 0.55078 1.6211 0.21094-0.003906-0.003906c0.082031 0.011719 0.15625 0.042969 0.21875 0.09375h0.050781l0.058594 0.058594h0.003906c0.015625 0.03125 0.035156 0.066406 0.046875 0.097656l0.41016 1.1406 1.1914 0.17969c0.11328 0.019531 0.21875 0.082031 0.28906 0.17187l0.46094 0.51172v-0.003906c0.12891 0.14844 0.16016 0.35938 0.078125 0.53906-0.082031 0.17969-0.26172 0.29297-0.45703 0.29297-0.14063-0.003906-0.27734-0.066406-0.37109-0.17188l-0.32812-0.37109-1.3008-0.19922v0.003906c-0.18359-0.03125-0.33594-0.16016-0.40234-0.33203v-0.96094l-0.87109 0.66016 0.12109 0.73047 0.92969 0.35156c0.27734 0.046875 0.46094 0.3125 0.41016 0.58984-0.046876 0.27344-0.3125 0.45703-0.58984 0.41016h-0.17969l-1.1914-0.46094h0.003906c-0.16406-0.0625-0.28516-0.20703-0.3125-0.37891l-0.25-1.2812c-0.03125-0.1875 0.042969-0.375 0.19141-0.48828l0.44922-0.33984-0.55078-0.070313c-0.09375-0.011718-0.18359-0.050781-0.25781-0.11328l-1.2617-1c-3.8164 1.543-6.3125 5.2461-6.3203 9.3633-0.007812 1.5312 0.33203 3.0469 1 4.4297l0.76953-0.87109 0.35156-2.3086c0.023438-0.19141 0.15625-0.35156 0.33984-0.41016l1.1094-0.35938v-0.003906c0.17969-0.058594 0.37891-0.011719 0.51172 0.12109l0.71094 0.71875 2-0.089844c0.27344 0 0.5 0.22656 0.5 0.5 0 0.27734-0.22656 0.5-0.5 0.5l-2.1719 0.10938v0.003906c-0.14062 0.003906-0.28125-0.050781-0.37891-0.15234l-0.64062-0.66016-0.51953 0.17188-0.070313 0.55078 1.4219 0.64844h-0.003906c0.17969 0.078125 0.29297 0.25391 0.29297 0.44922v0.85156l1.1211 0.25h-0.003906c0.11328 0.03125 0.21484 0.10156 0.28125 0.19922l0.71875 1.25c0.070312 0.11328 0.089844 0.25 0.054688 0.37891-0.035157 0.12891-0.11719 0.23438-0.23438 0.30078-0.074218 0.046874-0.16016 0.070312-0.25 0.070312-0.17578 0-0.33984-0.097656-0.42969-0.25l-0.62109-1.0586-1.2383-0.26172c-0.23047-0.046876-0.39453-0.25391-0.39062-0.48828v-0.94141l-0.83984-0.37891-0.058593 0.51172v-0.003906c-0.015626 0.10156-0.0625 0.19531-0.13281 0.26953l-1.1094 1.2383v0.003906c2.8047 4.4453 8.5547 5.9961 13.215 3.5664 4.6602-2.4336 6.6758-8.0312 4.6367-12.879-0.082031 0.054687-0.17578 0.082031-0.26953 0.082031h-0.19922l-0.078124 0.87891h-0.003907c1.2305 1.8516 1.3359 4.2305 0.27734 6.1836-1.0625 1.9531-3.1133 3.1602-5.3359 3.1367-0.57813 0.011719-1.1523-0.054687-1.7109-0.19922l-0.55859 0.78906c-0.070312 0.10156-0.17188 0.17188-0.29297 0.19922h-0.10156 0.003906c0.082031 0.066406 0.14062 0.16016 0.16797 0.26172l0.16016 0.60938 0.60156 0.30078c0.12109 0.058594 0.21094 0.16016 0.25 0.28906 0.042969 0.125 0.03125 0.26172-0.03125 0.37891-0.078125 0.17188-0.25 0.28125-0.4375 0.28125-0.082031 0-0.16016-0.019531-0.23047-0.050781l-0.80859-0.41016h-0.003906c-0.125-0.066406-0.21875-0.17969-0.25781-0.32031l-0.17188-0.67969-0.19922-0.16016-0.42188 0.69922 0.003906 0.003906c-0.09375 0.14844-0.25781 0.23828-0.43359 0.23828h-1.1016 0.003906c-0.27734 0-0.5-0.22266-0.5-0.5s0.22266-0.5 0.5-0.5h0.85938l0.57812-1c0.023437-0.027344 0.050781-0.050782 0.082031-0.070313h0.14062l0.87891-0.21094 0.30859-0.42969c-1.5312-0.78516-2.6523-2.1953-3.0742-3.8672-0.42187-1.6719-0.10547-3.4453 0.87109-4.8672 0.97656-1.4219 2.5156-2.3555 4.2305-2.5586 1.7109-0.20703 3.4297 0.33594 4.7148 1.4844v-0.21875l-0.28125-0.62109-0.62109-0.26953c-0.125-0.050782-0.22266-0.15234-0.26953-0.28125l-0.42969-1.1211c-0.046875-0.125-0.042968-0.26172 0.011719-0.38281 0.054687-0.12109 0.15625-0.21875 0.28125-0.26562 0.25781-0.097656 0.54688 0.03125 0.64844 0.28906l0.35156 0.92188 0.60156 0.26172-0.003907-0.003906c0.11719 0.050782 0.21094 0.14453 0.26172 0.26172l0.28906 0.62109z"/>
  <path d="m72.621 63.871c-0.35156-2.4258-2.4102-4.2383-4.8594-4.2852-2.4492-0.042969-4.5703 1.6914-5.0078 4.1055-0.44141 2.4102 0.93359 4.7812 3.2422 5.6055 2.3086 0.82031 4.8711-0.15234 6.0547-2.2969-0.65234 0.85156-1.6602 1.3477-2.7305 1.3516-1.3164 0.011719-2.5273-0.72266-3.1289-1.8984-0.60156-1.1719-0.48438-2.582 0.29297-3.6445 0.78125-1.0625 2.0938-1.5898 3.3945-1.3672 1.2969 0.22266 2.3594 1.1562 2.7422 2.418z"/>
  <path d="m66.84 64.891c0 1.0039 0.60547 1.9062 1.5312 2.2891 0.92578 0.38672 1.9922 0.17187 2.7031-0.53516 0.70703-0.71094 0.92188-1.7773 0.53516-2.7031-0.38281-0.92578-1.2852-1.5312-2.2891-1.5312-1.3711 0-2.4805 1.1094-2.4805 2.4805z"/>
  <path d="m55.609 10.5h4.0391v9h-4.0391z"/>
  <path d="m60.641 10.5h4.0391v9h-4.0391z"/>
  <path d="m35.461 10.5h4.0391v9h-4.0391z"/>
  <path d="m69.5 17.789v-5.5781c-0.003906-0.94141-0.76953-1.707-1.7109-1.7109h-2.1094v9h2.1094c0.94141-0.003906 1.707-0.76953 1.7109-1.7109z"/>
  <path d="m30.5 12.211v5.5781c0.003906 0.94141 0.76953 1.707 1.7109 1.7109h2.25v-9h-2.25c-0.94141 0.003906-1.707 0.76953-1.7109 1.7109z"/>
  <path d="m50.57 10.5h4.0391v9h-4.0391z"/>
  <path d="m40.5 10.5h4.0391v9h-4.0391z"/>
  <path d="m45.539 10.5h4.0391v9h-4.0391z"/>
  <path d="m43.488 80.078v-0.10156 0.003907c-0.52734-2.2031 0.60938-4.4688 2.6914-5.3594l0.058593-0.10938c0.37109-0.73438 1.2656-1.0312 2-0.66016l3.9492 2h0.003906c-0.44922-0.95312-1.2266-1.7148-2.1914-2.1406l-17.34-8.7109c-0.21094-0.10938-0.44141-0.16797-0.67969-0.17188-0.27344 0.007813-0.53906 0.082031-0.76953 0.22266-0.43359 0.24219-0.70313 0.69531-0.71094 1.1875-0.007812 0.28125 0.039062 0.55859 0.14062 0.82031 0.25781 0.75-0.03125 1.5781-0.69922 2-0.85938 0.5-1.6016 0.92969-1.1094 3.1602 0.19141 0.91016-0.75 1.3203-1.5195 1.6602h-0.003906c-0.16016 0.070313-0.26562 0.22656-0.26953 0.40234-0.003906 0.17578 0.09375 0.33984 0.25 0.41797l17.711 8.9492c0.95312 0.53906 2.0742 0.70312 3.1406 0.46094l-4-2c-0.36328-0.17578-0.63281-0.49219-0.75781-0.875-0.12109-0.38281-0.082031-0.80078 0.10547-1.1562zm-5.8008-1.5391h0.003906c-0.13281 0-0.25781-0.058593-0.34766-0.15234-0.089844-0.097657-0.14062-0.22656-0.13281-0.35547 0.03125-2.8555 1.3789-5.5312 3.6484-7.2617 0.21484-0.16797 0.52734-0.13281 0.69922 0.082031 0.16797 0.21875 0.13281 0.53125-0.078125 0.70703-2.043 1.5391-3.2539 3.9453-3.2695 6.5-0.007813 0.13281-0.0625 0.25781-0.16016 0.34766-0.097656 0.089844-0.22656 0.14062-0.35938 0.13281zm2.2305 1.1289 0.003906 0.003906c-0.13672-0.003906-0.26562-0.0625-0.35547-0.16016-0.09375-0.097657-0.14062-0.22656-0.13672-0.36328 0.039062-2.8516 1.3867-5.5273 3.6484-7.2578 0.21875-0.17188 0.53516-0.13281 0.70703 0.085937 0.17188 0.21484 0.13281 0.53125-0.085937 0.70313-2.0391 1.543-3.2461 3.9453-3.2695 6.5-0.011719 0.27344-0.23438 0.49219-0.50781 0.49219zm2.2383 1.1211h0.003906c-0.13281-0.003906-0.25781-0.0625-0.34766-0.16016s-0.13672-0.22656-0.13281-0.35938c0.023437-2.8516 1.3594-5.5312 3.6211-7.2695 0.10156-0.085938 0.23438-0.125 0.36719-0.10938 0.13281 0.015625 0.25 0.085937 0.33203 0.1875 0.085938 0.10547 0.125 0.23828 0.10938 0.36719-0.015625 0.13281-0.085937 0.25391-0.1875 0.33594-2.043 1.5391-3.2461 3.9414-3.2617 6.5 0 0.27734-0.22266 0.50391-0.5 0.50781z"/>
  <path d="m54.828 78.262-7-3.5195v-0.003907c-0.11719-0.050781-0.25-0.050781-0.36719 0-0.12109 0.046875-0.22266 0.13672-0.28125 0.25l-2.8008 5.5703c-0.11719 0.24609-0.019531 0.53516 0.22266 0.66016l7 3.5117c0.64063 0.33203 1.3906 0.38672 2.0781 0.16016 0.6875-0.23047 1.2539-0.72266 1.582-1.3711l0.73828-1.5977c0.32812-0.64844 0.38281-1.3945 0.16016-2.082-0.21484-0.68359-0.69531-1.2539-1.332-1.5781z"/>
  <path d="m44.449 79.289 1.7695-3.5195c-1.2617 0.69141-1.9648 2.0938-1.7695 3.5195z"/>
  <path d="m64.891 38c1.3398 0 2.5469-0.80469 3.0586-2.043s0.22656-2.6602-0.71875-3.6094c-0.94531-0.94531-2.3711-1.2266-3.6055-0.71484-1.2383 0.51172-2.0469 1.7188-2.0469 3.0586 0 0.875 0.35156 1.7188 0.97266 2.3398 0.62109 0.62109 1.4609 0.96875 2.3398 0.96875z"/>
  <path d="m64.73 43.109c0 0.70703 0.42578 1.3398 1.0742 1.6094 0.65234 0.26953 1.4023 0.11719 1.8984-0.38281s0.64453-1.25 0.37109-1.8984c-0.27344-0.64844-0.91016-1.0703-1.6133-1.0664-0.95703 0.003906-1.7305 0.78125-1.7305 1.7383z"/>
  <path d="m68.871 83.289c0 1.6133-2.4219 1.6133-2.4219 0 0-1.6133 2.4219-1.6133 2.4219 0"/>
  <path d="m41.691 62.879c0 1.4492 0.87109 2.7539 2.207 3.3086 1.3398 0.55469 2.8789 0.24609 3.9023-0.77734 1.0234-1.0234 1.332-2.5625 0.77734-3.8984-0.55469-1.3398-1.8594-2.2109-3.3086-2.2109-0.94922-0.003906-1.8633 0.37109-2.5352 1.043s-1.0469 1.5859-1.043 2.5352z"/>
 </g>
</svg>
