<?xml version="1.0" encoding="UTF-8"?>
<svg fill="#FF11DD" width="100pt" height="100pt" version="1.1" viewBox="0 0 100 100" xmlns="http://www.w3.org/2000/svg">
 <path d="m0 8.4492c0 0.76953 0.30859 1.5352 0.92188 2.1523 0.61328 0.61328 1.3828 0.92188 2.3047 0.92188h93.547c0.92187 0 1.6914-0.30859 2.3047-0.92188 0.61328-0.61328 0.92188-1.3828 0.92188-2.1523v-5.2227c0-0.92187-0.30859-1.6914-0.92188-2.3047l-0.15234-0.15234c-0.46094-0.46094-1.2305-0.76953-2.1523-0.76953h-93.547c-0.92187 0-1.6914 0.30859-2.3047 0.92188s-0.92188 1.3828-0.92188 2.3047zm100 66.512h-100v6.2969c0 5.0703 2.1523 9.832 5.5312 13.211s8.1406 5.5312 13.211 5.5312h62.52c5.0703 0 9.832-2.1523 13.211-5.5312s5.5312-8.1406 5.5312-13.211v-6.2969zm0-30.262h-100v26.266h100zm-90.016-29.031c-0.61328 5.375-3.2266 7.8359-5.8359 10.293-1.9961 1.9961-4.1484 3.9922-4.1484 8.4492v6.1445h100v-6.1445c0-4.4531-2.1523-6.4531-4.1484-8.4492-2.6133-2.457-5.2227-4.9141-5.8359-10.293z" fill-rule="evenodd"/>
</svg>
