<?xml version="1.0" encoding="UTF-8"?>
<svg fill="#FF11DD" width="100pt" height="100pt" version="1.1" viewBox="0 0 100 100" xmlns="http://www.w3.org/2000/svg">
 <path d="m88.672 77.141h-77.277v8.3516c0 3.9688 1.6445 7.5977 4.2422 10.266 2.668 2.6016 6.2969 4.2422 10.266 4.2422h48.254c3.9688 0 7.5977-1.6445 10.199-4.2422 2.668-2.668 4.3125-6.2969 4.3125-10.266v-8.3516zm-78.164-68.242h79.055c0.68359 0 1.3008-0.27344 1.7109-0.68359 0.48047-0.48047 0.75391-1.0938 0.75391-1.7109v-4.0391c0-0.68359-0.27344-1.3008-0.75391-1.7109-0.41016-0.48047-1.0273-0.75391-1.7109-0.75391h-79.055c-0.68359 0-1.3008 0.27344-1.7812 0.75391-0.41016 0.41016-0.68359 1.0273-0.68359 1.7109v4.0391c0 0.61719 0.27344 1.2305 0.68359 1.7109 0.48047 0.41016 1.0938 0.68359 1.7812 0.68359zm18.961 9.9258c1.3672 1.5742 2.9414 3.2852 6.8438 3.2852 3.7656 0 4.9961-1.4375 6.2305-2.9414 1.5742-1.8477 3.082-3.6953 7.4609-3.7656h0.070313c4.3125 0.070312 5.8867 1.918 7.4609 3.7656 1.1641 1.5039 2.3945 2.9414 6.1602 2.9414 3.9023 0 5.4766-1.7109 6.8438-3.2852 1.6445-1.918 3.1484-3.5586 6.6406-3.2852 2.668 0.20703 4.3789 1.5742 6.2305 3.0117 2.2578 1.7109 4.793 3.6953 9.9922 3.2852-1.0273-1.2305-1.918-2.6016-2.6016-4.0391-1.0938-1.9844-1.7812-3.9688-1.9844-5.75h-77.551c-0.27344 1.7812-0.95703 3.7656-1.9844 5.75-0.75391 1.4375-1.6445 2.8047-2.668 4.0391 5.2031 0.41016 7.7344-1.5742 9.9922-3.2852 1.918-1.4375 3.6289-2.8047 6.2305-3.0117 3.5586-0.27344 4.9961 1.3672 6.6406 3.2852zm-18.07 19.984h77.277v-9.582c0-1.3672-0.27344-2.3945-0.61719-3.2852-0.27344-0.61719-0.68359-1.1641-1.0938-1.6445-2.2578-0.82031-3.9688-2.0547-5.4766-3.2852-1.5039-1.1641-2.875-2.1914-4.5156-2.3281-1.9844-0.20703-2.9414 0.95703-4.0391 2.1914-1.8477 2.0547-3.9023 4.3789-9.2422 4.3789-5.2031 0-6.9141-2.0547-8.625-4.0391-1.0938-1.3672-2.1211-2.668-5.0664-2.668-2.875 0-3.9688 1.3008-5.0664 2.668-1.7109 1.9844-3.4219 4.0391-8.625 4.0391-5.3398 0-7.3906-2.3281-9.1719-4.3789-1.0938-1.2305-2.0547-2.3945-4.0391-2.1914-1.7109 0.13672-3.082 1.1641-4.5156 2.3281-1.5742 1.2305-3.2188 2.4648-5.543 3.2852-0.41016 0.48047-0.75391 1.0273-1.0273 1.6445-0.41016 0.89062-0.61719 1.918-0.61719 3.2852v9.582zm0 35.18h77.277v-32.031h-77.277z" fill-rule="evenodd"/>
</svg>
