<?xml version="1.0" encoding="UTF-8"?>
<svg fill="#FF11DD" width="100pt" height="100pt" version="1.1" viewBox="0 0 100 100" xmlns="http://www.w3.org/2000/svg">
 <path d="m50 1.1719c-26.973 0-48.828 21.855-48.828 48.828s21.855 48.828 48.828 48.828 48.828-21.855 48.828-48.828-21.855-48.828-48.828-48.828zm-13.574 22.832c0-1.8164 1.4648-3.3008 3.3008-3.3008h20.762c1.8359 0 3.3203 1.4844 3.3203 3.3008v4.8828h-27.383zm32.031 52.891c0 1.3281-1.2109 2.4023-2.7148 2.4023h-31.484c-1.5039 0-2.7148-1.0547-2.7148-2.4023v-37.285c0-0.85938 0.23438-1.6797 0.68359-2.4219l4.2773-7.0508h26.777l4.4336 7.0117c0.48828 0.78125 0.74219 1.6406 0.76172 2.5195z"/>
</svg>
