<?xml version="1.0" encoding="UTF-8"?>
<svg fill="#FFFFFF" width="100pt" height="100pt" version="1.1" viewBox="0 0 100 100" xmlns="http://www.w3.org/2000/svg">
 <g>
  <path d="m65.625 37.5c-1.7266 0-3.125-1.3984-3.125-3.125v-31.25c0-1.7266 1.3984-3.125 3.125-3.125h6.25c1.7266 0 3.125 1.3984 3.125 3.125v21.875h21.875c1.7266 0 3.125 1.3984 3.125 3.125v6.25c0 1.7266-1.3984 3.125-3.125 3.125z"/>
  <path d="m25 25v-21.875c0-1.7266 1.3984-3.125 3.125-3.125h6.25c1.7266 0 3.125 1.3984 3.125 3.125v31.25c0 1.7266-1.3984 3.125-3.125 3.125h-31.25c-1.7266 0-3.125-1.3984-3.125-3.125v-6.25c0-1.7266 1.3984-3.125 3.125-3.125z"/>
  <path d="m37.5 96.875c0 1.7266-1.3984 3.125-3.125 3.125h-6.25c-1.7266 0-3.125-1.3984-3.125-3.125v-21.875h-21.875c-1.7266 0-3.125-1.3984-3.125-3.125v-6.25c0-1.7266 1.3984-3.125 3.125-3.125h31.25c1.7266 0 3.125 1.3984 3.125 3.125z"/>
  <path d="m62.5 96.875c0 1.7266 1.3984 3.125 3.125 3.125h6.25c1.7266 0 3.125-1.3984 3.125-3.125v-21.875h21.875c1.7266 0 3.125-1.3984 3.125-3.125v-6.25c0-1.7266-1.3984-3.125-3.125-3.125h-31.25c-1.7266 0-3.125 1.3984-3.125 3.125z"/>
 </g>
</svg>
